<?xml version="1.0" encoding="utf-8"?>
<!-- Generator: Adobe Illustrator 23.1.0, SVG Export Plug-In . SVG Version: 6.00 Build 0)  -->
<svg version="1.1" id="Capa_1" xmlns="http://www.w3.org/2000/svg" xmlns:xlink="http://www.w3.org/1999/xlink" x="0px" y="0px"
	 viewBox="0 0 280 180" style="enable-background:new 0 0 280 180;" xml:space="preserve">
<style type="text/css">
	.st0{fill:#D59E49;}
	.st1{fill:#D5A151;}
	.st2{fill:#967967;}
	.st3{fill:#967A69;}
</style>
<g>
	<path class="st0" d="M144.3,1c7.9,0,14.9,0.3,20.7,4.3c7.1,4.7,11.9,11.5,14.4,19.5c1.2,3.9,0.1,8.1-0.3,12.1c-0.3,3.9-2,7-4.6,10
		s-4.5,6.6-7.9,9c-3.8,2.7-8.3,3.3-12.6,4.6c-9.7,2.9-19,1.2-27.7-3c-7.3-3.5-10.9-10-13.5-17.4s-2.3-14.6,0.8-21.7
		c1.9-4.4,5.5-7.2,9.2-9.8c2.7-1.9,5.6-3.5,8.5-5.2C135.8,1.1,140.5,0.9,144.3,1z M138.8,24.6c-1.7,0-3.3,0-5,0
		c-1.5,0.1-2.8,0.7-2.5,2.4c0.3,1.4,0.9,2.8,3.1,2.4c1.7-0.3,3.2-1.3,5-1.5c1.9-0.3,3,0.3,3.2,2.3c0.2,2.1,0.7,4.2,0.8,6.3
		c0.3,3.4,0.7,7-3.2,9.1c-2.1,1.1-4,2.5-6.4,3.1c-1.9,0.5-3.2,2.7-2.5,4.1c0.8,1.6,2.7,1.7,4.6-0.1c2.7-2.5,5.8-4.4,8.7-6.4
		c1-0.7,2.1-0.8,3.1-0.1c0.9,0.6,1.8,1.2,2.7,1.9c2.2,1.9,3.8,4.2,5.5,6.5c0.6,0.8,1.3,1.8,2.5,1.2c1-0.5,1.3-1.5,1.3-2.6
		s-0.4-2.1-1.4-2.6c-2.3-1.2-4-3.1-5.8-4.8c-2.4-2.3-5.1-4.5-5.9-8c-0.6-2.6-0.3-5.1-0.4-7.7c-0.1-1.7,0.6-2.4,2.3-2.3
		c2.5,0.1,5.1,0,7.6,0.6c1,0.2,2.1,0.2,2.7-0.9c0.5-0.9,0-1.7-0.6-2.4c-0.7-0.9-1.8-1.4-3-1.2C149.9,24.6,144.3,24.3,138.8,24.6z
		 M144.6,7.2c-4.8,0-8.7,3.7-8.6,8.2c0.1,4.1,4.4,7.6,9.3,7.6c4.5,0,8.5-3.6,8.5-7.5C153.9,10.7,150,7.2,144.6,7.2z"/>
	<path class="st1" d="M191.6,139.1c4.6-0.6,9.1-1,13.5-1.8c2.9-0.5,5.8-0.3,8.7-0.1c0.8,0.1,2.4-0.3,2.2,1.4
		c-0.2,1.4-1.3,2.4-2.7,2.2c-4-0.6-7.8,0-11.6,0.8c-4.4,0.9-9,1-13.2,2.9c-1.9,0.9-3.6-0.2-5-1.2s-0.6-2.6,0-3.7
		c1.8-3.3,2.8-6.7,2.2-10.6c-0.2-1.3,1-2.6,1-4c0.1-1.5,0.1-2.9-1.4-3.9c-1.4-0.9-1.9-2.4-0.5-3.8c0.9-0.9,0.7-1.8,0.7-2.8
		c0-1.3,0.2-2.7,1.7-2.9c1.4-0.2,2.2,1.1,2.2,2.3c0.1,2.7,1.6,2.4,3.5,2.1c6-0.9,11.8-2.5,17.6-4c1.4-0.3,3.3,0.6,3.5,1.9
		c0.2,1.5-1,2.1-2.2,2.3c-6.3,1.3-12.6,2.6-18.9,3.9c-2.9,0.6-4.3,3-3.3,5.8c0.3,0.8,0.9,0.8,1.5,0.7c5.3-1,10.7-1.1,15.9-2.5
		c1.6-0.4,3.4-0.2,3.8,1.5c0.5,2-1.5,2.7-3,2.8c-3.8,0.2-7.5,1.2-11.3,1.7c-1.1,0.1-2.2,0.3-3.3,0.6c-4.2,0.8-5.9,2.9-5.9,7.1
		c0,0.9,0.2,1.3,1.2,1.4C189.6,139,190.6,139.1,191.6,139.1z"/>
	<path class="st2" d="M191.1,85.7c4.3,2.1,7.9,4,11.6,5.7c2.5,1.1,4.7,3,7.4,3.8c0.6,0.2,1.1,0.9,1.5,1.4c1,1.2,1.3,2.8,0,3.8
		s-3,0.7-4-0.7c-4.8-5.9-12-7.5-18.8-9.8c-1.3-0.4-0.8,0.8-0.8,1.3c0.3,2.4,0.7,4.8,1,7.2c0.1,1.1,0.4,2.4-1.2,2.5
		c-1.4,0.1-2.4-0.7-2.4-2.3c0-2.3,0-4.7-0.4-7c-0.3-1.5-0.9-2.5-2.3-2.9c-1.3-0.4-2.4-1.1-2.5-2.6s1-2.2,2.1-2.8
		c1.1-0.6,1.8-5.1,1-6.2c-0.4-0.5-0.8-0.3-1.3-0.1c-1.2,0.5-2.3,1.1-2.9,2.3c-0.5,1-1.1,1.5-2.3,1.1s-1.8-1.3-1.6-2.6
		c0.3-2,1.5-3.3,3.4-3.8c2.4-0.6,4.5-1.3,4.7-4.3c0.1-1.1,0.7-2.2,2.1-2.1c1.3,0.1,2,1,2.2,2.2c0.2,1.8,1.2,1.9,2.6,1.8
		c2.6-0.1,5.2-0.1,7.9,0c2,0,3.9,0.4,5.6,1.6c1.8,1.2,2.5,2.9,1.5,4.8c-1.1,2.1-2.8,3.7-5.3,4.5C197.4,83.4,194.6,84.5,191.1,85.7z
		 M194.2,75.2c-1.8,0.1-3.6,0.1-5.4,0.3c-0.8,0.1-1.9,0.3-1.7,1.5c0.2,1.9-0.7,3.9,0.8,5.6c0.1,0.2,0.6,0.1,0.9,0
		c4.2-0.7,8.1-2.1,11.7-4.2c0.6-0.4,1.2-0.9,1-1.7c-0.1-0.7-0.8-0.9-1.4-1.1C198.1,75.1,196.1,75.4,194.2,75.2z"/>
	<path class="st1" d="M79.8,129.8c6,3.1,11.9,6.1,17.8,9.1c0.2,0.1,0.5,0.1,0.7,0.2c1.3,1,2.4,2,2.2,3.9c-0.1,0.9-0.3,1.5-1.3,1.7
		c-1.6,0.3-2.9-0.2-3.9-1.6c-2.7-3.7-7.1-4.8-10.9-6.7c-2.1-1-4.4-1.7-6.7-2.3c-1.4-0.3-1.5,0.2-1.4,1.2c0.4,2.4,0.7,4.8,1.1,7.2
		c0.2,1.1,0.2,2.4-1.4,2.4c-1.3,0-2.3-0.6-2.3-2.2c0-2.4,0.1-4.8-0.4-7.3c-0.3-1.4-1-2.4-2.4-2.9c-1.3-0.4-2.3-1.2-2.4-2.6
		c-0.1-1.4,0.9-2.1,2-2.7c1.2-0.7,2-4.9,1.2-6.1c-0.4-0.6-0.8-0.3-1.2-0.2c-1.3,0.3-2.3,1.1-2.9,2.2c-0.5,1-1.2,1.7-2.5,1.1
		c-1.1-0.6-1.7-1.4-1.4-2.7c0.4-1.8,1.5-3.2,3.3-3.6c2.6-0.6,4.6-1.6,4.8-4.5c0.1-1.1,0.8-1.9,2.1-1.8c1.3,0,1.9,0.9,2.1,1.9
		c0.3,1.9,1.4,2.1,3,2c2.5-0.1,5.1-0.1,7.6,0c1.9,0.1,3.7,0.4,5.4,1.6c2.2,1.5,2.6,3.5,1.2,5.8c-1.9,3-5.3,3.5-8.2,4.8
		C83.3,128.3,81.4,128.3,79.8,129.8z M82.3,119.3c-1.7,0-3.5-0.1-5.2,0c-1.1,0.1-2.1,0.5-2,1.9c0.2,1.8-0.6,3.8,0.9,5.4
		c0.1,0.1,0.5,0.1,0.7,0.1c4.3-0.9,8.5-2.1,12.2-4.5c1.3-0.8,1.1-1.8-0.4-2.4C86.5,118.9,84.4,119.2,82.3,119.3z"/>
	<path class="st1" d="M230.2,125.4c4.2,0,8.4-0.7,12.6-0.5c2.8,0.1,5.1,1.3,7,3c1.5,1.4,1.4,3.8-0.1,5.8c-3.4,4.7-8.5,6.6-13.8,8
		c-2.4,0.6-4.9,0.7-7.3,1.2c-1.1,0.2-2.1,0.3-2.6-0.8c-0.5-1-0.6-2.1,0.2-3.1c1.2-1.4,2.8-2,4.6-2.1c0.7-0.1,1.6,0.2,1,1.3
		c-0.5,0.9,0.2,0.9,0.7,0.8c5.4-0.9,10.6-2.4,14.1-7c1.7-2.2,1.3-3-1.5-3.7c-3.8-1-7.6-0.6-11.4-0.1c-3.3,0.4-6.7,0.5-10,0.1
		c-2.4-0.3-5.1-0.8-6-3.7c-0.9-2.9-0.3-5,2.5-6.3c5.9-2.8,11.9-5.2,18.3-6.5c1.6-0.3,3.1,0.1,4,1.4c0.8,1,1.2,2.2,0.5,3.5
		c-1,2-3.1,2.3-4.5,0.5c-0.7-0.9-1.4-1.2-2.4-1c-4.8,1-9.6,2.2-13.8,4.8c-0.8,0.5-1.8,1-1.5,2.1s1.3,1.4,2.4,1.7
		C225.5,125.4,227.8,125.4,230.2,125.4z"/>
	<path class="st1" d="M125.1,127.6c0,6.3,3.1,11.4,7.1,16.1c0.9,1,2.4,1.6,3.4,2.5c1.1,1.1,2.1,2.6,0.7,3.9c-1.5,1.4-2.8,0-3.8-1.1
		c-4.8-4.7-7.9-10.5-10.1-16.7c-0.7-1.8-1.3-2.8-3.5-2.1c-2.6,0.8-5.4,1.2-8.1,1.9c-3.2,0.9-4.3,2.4-4.6,5.8c0,0.5,0,1.1-0.1,1.6
		c-0.1,1.1-0.6,1.8-1.6,2c-1,0.3-1.6-0.4-2.2-1.1c-0.6-0.8-1.1-1.6-0.3-2.5c0.4-0.5,0.8-0.9,1.2-1.5c0.8-1.2,1.4-2.2,0.5-3.8
		c-0.8-1.4-0.7-2.9,1.4-3.4c1-0.2,1.6-0.9,1.9-1.9c1.4-3.5,2.8-7,4.2-10.4c0.5-1.3,0.8-2.7,0.8-4.1c-0.2-2.9,1.9-3.9,4.1-4.7
		c1.3-0.5,3.4,1.3,3.5,3.1c0.2,4.2,1.9,8,2.9,12.1c0.2,1,0.7,1.7,1.7,2.1C125,125.8,125.4,126.5,125.1,127.6z M109.6,128.5
		c3.4-0.6,6.5-1.1,9.7-1.6c0.9-0.1,1.4-0.6,0.9-1.4c-1.3-2.5-1.3-5.3-2.5-7.8c-0.4-0.8-0.7-1.9-1.5-2c-1-0.1-1.7,0.9-2,1.7
		C112.8,121,110.7,124.4,109.6,128.5z"/>
	<path class="st3" d="M261.4,96.7c5.1-0.6,9.8-2.3,13.7-5.5c0.8-0.7,1.9-1.6,1.5-2.7s-1.8-1.2-2.9-1.4c-4.1-0.8-8.1-0.2-12.1,0.2
		c-3.3,0.3-6.5,0.4-9.8-0.1c-3.4-0.6-4.9-2.1-5.2-4.8c-0.2-2.1,0.5-3.8,2.4-4.7c6.1-3,12.4-5.7,19.2-6.7c2.7-0.4,4.7,1.7,4.2,4.2
		c-0.3,1.3-1.1,2-2.4,2.3c-1.2,0.3-1.9-0.3-2.3-1.2c-0.5-1.1-1.4-1.2-2.4-1c-4.7,1-9.3,2.1-13.5,4.6c-0.9,0.5-2.2,1.1-2,2.4
		c0.2,1.4,1.6,1.6,2.8,1.8c4,0.6,8.1,0.4,12.1,0.2c2.3-0.1,4.6-0.2,6.9-0.2c2.5-0.1,4.6,1,6.5,2.4c1.8,1.3,2,3,1,4.8
		c-0.9,1.7-2.2,3.1-3.9,4.1c-4.3,2.3-8.8,4.5-13.8,4.7c-1.1,0.1-2.2,0.3-3.3,0.6c-1.1,0.3-2,0.4-2.6-0.8c-0.6-1.2-0.6-2.2,0.3-3.3
		c0.9-1,2.1-1.4,3.3-1.8C261.5,94,261.8,94.4,261.4,96.7z"/>
	<path class="st2" d="M134.5,74.2c-3.1,0.1-6.2,0.3-9.3,0.4c-0.8,0-1.5,0-1.9,1c-1.9,5.2-4.2,10.3-5,15.8c-0.3,1.9-0.7,3.9-0.1,5.8
		s-0.7,2.5-1.9,2.9c-1.5,0.5-2.1-0.9-2.4-2c-0.2-0.7,0-1.6,0.1-2.3c1.1-4.8,2.3-9.6,3.4-14.4c1.2-5.3,0.5-6.3-4.7-5.7
		c-4.1,0.5-8.4,0.2-12.4,2.1c-1,0.5-2.2,0.6-2.9-0.7c-0.8-1.5-1.3-3.1-0.1-4.6c0.8-1,2-1.3,3.2-0.7c2.2,1.2,4.5,0.6,6.8,0.4
		c10.8-1.2,21.7-2.1,32.6-1.6c1,0,2.1,0.2,3.1,0.3c1.1,0.1,1.7,0.7,1.6,1.9c-0.1,1.2-0.9,1.6-2,1.6c-2.7,0-5.4,0-8.1,0
		C134.5,74.4,134.5,74.3,134.5,74.2z"/>
	<path class="st2" d="M237.6,86.7c-1.4,4,1.2,7,2.8,10.3c0.5,1.1,1.2,2,2.3,2.6c0.3,0.2,0.6,0.5,0.9,0.8c1,1.4,2.4,3.1,0.6,4.5
		c-1.9,1.5-3-0.6-3.8-1.9c-2.2-3.5-4.1-7.1-5.4-11c-1.1-3.3-1.1-3.3-4.6-2.6c-2.2,0.5-4.5,0.9-6.7,1.5c-3.4,0.8-4.6,2.2-5.1,5.6
		c-0.1,0.4-0.1,0.8-0.1,1.2c0,1.3-0.2,2.6-1.7,3c-1,0.3-1.6-0.5-2.1-1.2c-0.9-1.2-0.6-2.3,0.4-3.3c1.4-1.4,2-2.8,0.8-4.8
		c-0.6-1-0.4-2.5,1.1-2.9c1.9-0.4,2.4-1.9,3-3.3c1.9-5,4.5-9.7,4.8-15.2c0.1-2.6,2.7-2.4,4.2-2.8s2.8,1.2,2.9,2.8
		c0.2,3.2,1.2,6.3,2.1,9.4c0.6,2.1,0.7,4.4,3.1,5.5C237.6,85.2,237.7,86,237.6,86.7z M221.7,87.5c3.5-0.6,6.6-1.1,9.7-1.6
		c0.9-0.1,1.5-0.4,1.2-1.5c-0.9-2.6-1.6-5.2-2.6-7.8c-0.3-0.8-0.5-1.9-1.4-2c-1-0.1-1.6,0.9-2,1.8C224.9,80,223.4,83.7,221.7,87.5z"
		/>
	<path class="st3" d="M10.4,109.2c-8.4,0.6-10.1-4.8-9.1-12C2.2,91.3,6,87,10.1,83c4.6-4.5,9.9-8.1,15.9-10.7
		c1.1-0.5,1.9-0.2,2.6,0.5c0.8,0.8,1.5,1.7,1.1,2.9c-0.4,1-1,1.8-2,2.2c-0.2,0.1-0.5,0-0.6-0.1c-2-2.3-3.9-0.7-5.8,0.1
		c-6.5,3-10.8,8.3-14.9,13.9c-2.1,2.9-2.6,6.4-2,9.9c0.5,3.1,1.6,3.9,4.8,4c5.5,0.2,10.5-1.8,15.6-3c3.9-1,7.8-2.2,11.7-3.3
		c0.2,0,0.3-0.1,0.5-0.1c1.1,0,2.7-0.6,3.1,0.8c0.4,1.4-1.3,1.6-2.3,1.9c-8,2.3-15.9,5-24,6.9C12.3,109.3,11,109.1,10.4,109.2z"/>
	<path class="st1" d="M152.2,141.8c5.2-0.3,10.1-2,15-3.3c3.8-1,7.5-2.1,11.2-3.1c1.1-0.3,2.5-0.3,2.9,0.9c0.5,1.4-1,1.6-2.1,1.9
		c-8.1,2.5-16.2,5.4-24.6,7c-6.1,1.1-10,0.6-11.8-4.9c-1-3.1,0.1-6,1.6-8.5c5.2-8.5,12.3-15.2,21.7-19.2c0.6-0.2,1.1-0.6,1.7-0.9
		c1.3-0.5,2.4,0.1,3,1.2c0.8,1.3,0.7,2.5-0.4,3.7c-0.9,1-1.6,0.8-2.6,0c-0.9-0.8-2.2-0.5-3.2,0c-2.1,1-4.4,1.8-6.2,3.4
		c-4.4,3.8-8.7,7.8-11.6,12.9c-0.9,1.6-1.7,3.3-1.2,5.3c0.7,3,1.6,3.7,4.8,3.7C151,141.8,151.6,141.8,152.2,141.8z"/>
	<path class="st3" d="M89.4,163.8c-0.2,0.9-0.7,1.5-1.3,1.8c-1.1,0.6-2.2,0.5-3.1-0.4c-2.2-2.2-5.3-3.2-7.7-5
		c-3.6-2.7-7-2.1-10.4,0.5c-2.4,1.8-4.6,3.8-7.3,5.2c-1.2,0.6-2,0.5-2.9-0.3c-2.3-2.2-4.9-4-7.6-5.6c-2.3-1.4-4.5-1.4-7.1,0
		c-3.2,1.8-5.8,4.3-9.1,6c-0.8,0.4-1.6,0.8-2.4,0.2s-1.5-1.3-1.4-2.3s1-1.2,1.7-1.4c5.1-1.7,9.7-4.2,13.4-8.1c1.1-1.1,2-0.6,2.9,0.2
		c2.2,1.9,4.3,4,6.7,5.6c2.7,1.8,5.1,2.6,8,0.6c3.1-2.1,6.9-3.2,9.2-6.4c0.8-1.1,2-0.8,3,0c1.3,1.1,2.5,2.4,3.9,3.5
		c2.3,1.8,5,3.1,7.9,3.6C87.4,161.6,88.5,162.6,89.4,163.8z"/>
	<path class="st3" d="M253.8,162.2c0,2.2-1.8,3.5-3.2,2.9c-1.2-0.5-2.3-1-3.3-1.9c-2.2-2-4.8-3.5-7.5-5c-1.8-1-3.7-0.8-5.5,0.2
		c-2.9,1.6-5.6,3.6-8,5.8c-1,1-1.9,1.1-3.2,0.5c-2.7-1.4-4.9-3.5-7.3-5.2c-4.6-3.1-6.5-3.1-11,0c-2.4,1.6-5.2,2.7-7.3,4.7
		c-1.1,1-2.6,0.7-3.6-0.5c-1.2-1.4,0.2-2.1,1.1-2.8c0.4-0.3,0.9-0.7,1.4-0.8c4.6-0.6,8.1-3,11.2-6.2c2.3-2.3,2.8-2,5.1,0.2
		c3.1,3,7.1,4.7,11,6.5c1.4,0.7,3.1-0.4,4.4-1.3c2.5-1.7,4.9-3.5,7-5.6c1.4-1.5,2.6-1.7,4.3,0.1c3.3,3.4,7.5,5.6,12.1,7.2
		C252.6,161.4,253.8,161.5,253.8,162.2z"/>
	<path class="st2" d="M71.8,101.9c0.3-2.2,1.5-4.2,1.6-6.5c0.3-6.6,0.4-13.1-1.7-19.5c-0.4-1.2,0-2.2,0.9-3s1.8-0.6,2.9-0.2
		c1.3,0.4,1.5,1.4,1.4,2.4c-0.8,7,0.6,14.1,0.1,21.1c-0.1,1.9,0.7,2.6,2.5,2.8c6.2,0.6,12.5,1.5,18.7,0.4c1.2-0.2,2.3,0.2,2.9,1.2
		c0.6,0.8,0.5,1.8-0.2,2.6c-0.9,0.9-1.9,1.5-3.2,1.1c-6-1.9-12.3-0.9-18.4-1.2c-1-0.1-1.5,0.7-2.2,1.2c-0.9,0.6-1.6,1.9-3,1.3
		C72.5,104.9,72.1,103.5,71.8,101.9z"/>
	<path class="st2" d="M40.8,83.8c0-1.8-0.1-3.6,0-5.4c0.1-1.2,0.2-2.6,1.7-3c1.3-0.3,2.4,0.1,3.2,1.1c0.9,1.2,1.1,2.6,0.1,3.7
		c-2.3,2.5-2.2,5.6-2.2,8.6c0,0.9,0.2,1.9,0.5,2.7c1.1,2.9,2.9,3.7,5.8,2.7c5.4-1.8,9.9-4.9,13.4-9.4c1.4-1.8,1.8-4,2.1-6.2
		c0.1-1-0.1-1.9-1.5-1.9c-0.7,0-1.3-0.3-1.3-1.1c-0.1-1,0.4-1.8,1.2-2.4c0.7-0.5,1.3-0.3,1.9,0.1c2.2,1.7,2.5,4.1,2.3,6.6
		c-0.3,6.4-3.9,10.7-9.1,14c-1.7,1.1-3.6,2-5.4,3c-6.9,4.2-11.5-0.9-12.9-6.3C40.1,88.6,40.4,86.2,40.8,83.8z"/>
	<path class="st2" d="M146.2,85.5c0.1-2,0.1-4.1,0.3-6.1c0.1-1.2,0.1-2.6,1.7-3c1.3-0.3,2.4,0.1,3.1,1.1c0.9,1.2,1,2.6,0,3.7
		c-1.9,2-2,4.5-2.2,7c-0.1,1.2,0,2.3,0.3,3.5c1,3.6,3,4.7,6.6,3.4c4.4-1.7,8.3-4.1,11.6-7.6c1.7-1.9,2.9-3.9,3.2-6.4
		c0.2-1.5,0.9-3.2-1.8-3.3c-1.3-0.1-1.1-1.4-0.5-2.3s1.3-2,2.6-1.1s2.1,2.1,2.3,3.7c1.1,6.2-1.5,11-6,15c-3.1,2.6-6.7,4.5-10.4,6.1
		c-2.8,1.2-5.7,0.4-7.8-1.8C146.1,93.9,145.8,89.8,146.2,85.5z"/>
	<path class="st1" d="M41.3,141.1c0.1-0.7,0.3-2,0.6-3.3c0.8-3.5-0.3-6.5-2.7-9c-1.4-1.5-2.4-3.2-4.3-4.4c-1.6-1-1.1-2.7-0.1-3.9
		c1.2-1.4,2.2-0.3,3.2,0.5c1.1,1,1.3,2.5,2,3.7c1.2,2.1,2.8,2.4,4.8,1.6c2.3-0.8,3.9-2.3,5-4.5c0.6-1.1,1.1-2.9,3-2.1
		c1.4,0.6,1.6,3.1,0.5,4.6c-0.4,0.5-0.9,1-1.4,1.2c-6.9,3.1-7.2,9-6.7,15.3c0,0.5,0.2,0.9,0.3,1.4c0.1,1.2,0.5,2.7-1.4,2.9
		c-1.7,0.1-2.7-0.8-2.7-2.5C41.3,142.2,41.3,142,41.3,141.1z"/>
	<path class="st1" d="M156.4,161.5c0-0.9,0-1.7,0-2.6c0-1.3,0.2-2.4,1.9-1.4c0.6,0.4,1,0,1.5-0.1c2.5-0.5,5.1,0.6,7.7-0.2
		c0.8-0.2,1.8,0.9,1.8,2.1c0.1,1.8,0.2,3.6,0.2,5.4c0,0.8-0.2,1.4-1.2,1.4s-1.2-0.6-1.2-1.4c0-1.3,0-2.5,0-3.8
		c0-0.8-0.2-1.7-1.2-1.7s-1.6,0.7-1.6,1.7c0,1.2,0,2.4,0,3.5c0,0.8-0.2,1.6-1.3,1.6s-1.2-0.7-1.2-1.6c0-1.1,0-2.2,0-3.3
		c0-1-0.1-2.1-1.4-2c-1.1,0.1-1.6,0.9-1.5,2c0,1.1,0,2.2,0,3.3c0,0.7,0,1.5-1,1.5c-1.1,0-1.3-0.6-1.3-1.5
		C156.4,163.5,156.4,162.5,156.4,161.5z"/>
	<path class="st1" d="M140.7,125.9c-0.5,3.7-1,7.4-1.6,11.1c-0.2,1-0.5,2.3-2.1,1.9c-1.5-0.3-1.8-1.4-1.6-2.7
		c0.7-4.2,1-8.3,0.1-12.6c-0.2-0.9,0.2-2,1-2.8c1.3-1.3,2.4-1.1,3.2,0.4C140.4,122.8,140.7,124.3,140.7,125.9z"/>
	<path class="st1" d="M118.3,161.6c0,0.9,0,1.7,0,2.6c-0.1,1.4-0.4,2.5-2.1,1.3c-0.8-0.5-1.1,0.2-1.7,0.4c-1.3,0.5-2.5,0.3-3.5-0.8
		c-0.8-0.9-1.3-6.2-0.7-7.3c0.3-0.6,0.8-0.8,1.4-0.7s1,0.4,1,1.1c0,1.3,0,2.5,0,3.8c0,0.9,0.1,1.9,1.2,1.9c1.2,0,1.8-0.8,1.8-2
		c-0.1-1.1,0-2.2,0-3.3c0-0.8,0.2-1.4,1.1-1.5c1.1-0.1,1.4,0.6,1.4,1.5C118.3,159.6,118.3,160.6,118.3,161.6z"/>
	<path class="st1" d="M179.7,166.2c-2.7,0-4.2-1.7-4.2-4.6c0-2.8,1.8-4.7,4.5-4.7s4.5,1.9,4.4,4.7
		C184.3,164.4,182.4,166.2,179.7,166.2z M181.8,161.5c0-1.3-0.2-2.7-1.8-2.7c-1.5,0-2.1,1.2-2.1,2.6c0,1.4,0.2,2.8,2,2.8
		C181.5,164.2,181.8,162.9,181.8,161.5z"/>
	<path class="st1" d="M146.3,166.1c-0.2,0-0.7-0.1-1.2-0.3c-0.6-0.3-1.1-0.8-0.8-1.5c0.3-0.8,0.9-0.2,1.4-0.2
		c0.8,0.1,1.8,0.5,2.1-0.3c0.5-1.1-0.7-1.3-1.5-1.6c-1.7-0.7-2.5-2-1.8-3.8c0.5-1.3,3.3-2,4.6-1.3c0.5,0.3,1,0.6,0.9,1.3
		c-0.2,0.9-0.8,0.5-1.3,0.4c-0.8-0.1-1.8-0.5-2.1,0.4s0.8,1.1,1.5,1.4c1.5,0.6,2.5,1.6,2.1,3.4C149.9,165.4,148.5,166.2,146.3,166.1
		z"/>
	<path class="st1" d="M135.5,115.4c-0.8-0.1-1.6-0.9-1.3-1.9c0.8-2.7,1.6-5.4,3.8-7.3c0.8-0.7,1.7-1.4,2.7-0.6s0.1,1.6-0.2,2.3
		c-0.9,2.3-1.9,4.5-3.3,6.4C136.9,114.8,136.6,115.4,135.5,115.4z"/>
	<path class="st1" d="M102.7,166.1c-1.8-0.1-2.5-1.1-2.7-2.7c-0.2-1.7,0.4-3.4-1.2-5c-0.8-0.8,1-2.4,1.8-3.2
		c0.9-0.9,1.3,0.9,1.9,1.3c2,1.4,2.4,2,0,3.4c-0.3,0.2-1.5,3.5,1.4,4.2c0.6,0.1,0.6,0.6,0.5,1.1
		C104.1,166.2,103.4,166.1,102.7,166.1z"/>
	<path class="st1" d="M124.6,161.5c0-0.8,0-1.6,0-2.3c0.1-1.3,0.1-2.8,2.1-1.6c0.8,0.5,1.2-0.5,1.9-0.6s1.3,0,1.4,0.9
		c0,0.6,0.3,1.5-0.6,1.5c-2.3,0-2.3,1.5-2.2,3c0,0.9,0,1.7,0,2.6c0,0.8-0.4,1.1-1.2,1.2c-0.8,0-1.3-0.3-1.3-1.1
		C124.6,163.8,124.7,162.7,124.6,161.5C124.7,161.5,124.6,161.5,124.6,161.5z"/>
	<path class="st3" d="M146.5,176.7c-0.7,1.1,0.5,2.9-0.9,2.9c-1.1,0-0.3-1.9-0.5-2.9c-0.1-0.5,0-0.9,0-1.4s0-1,0.6-1.2
		s1.1,0,1.4,0.6c0.4,0.7,0.9,1.4,1.4,2.3c0.2-0.2,0.3-0.3,0.3-0.4c0.4-0.7-0.6-2.3,0.8-2.2c1,0,0.5,1.5,0.5,2.2
		c-0.1,1.1,0.7,2.8-0.6,3.1c-1.6,0.5-1.6-1.6-2.3-2.4C146.9,177.1,146.7,176.9,146.5,176.7z"/>
	<path class="st1" d="M135.8,161.4c0-1,0-2,0-3c0-0.7,0.2-1.2,1.1-1.3c0.8,0,1.2,0.3,1.2,1.1c0,2.3,0,4.5,0,6.8
		c0,0.7-0.4,1.1-1.2,1.1s-1.1-0.5-1.1-1.2C135.8,163.7,135.8,162.5,135.8,161.4z"/>
	<path class="st3" d="M182.6,174.4c-0.8,0.9-1.9,0.2-2.3,1.3c0.1,0.7,0.8,0.4,1.3,0.5c0.8,0.3,1.1,0.8,1.2,1.6
		c0,0.7-0.2,1.4-0.9,1.8c-0.7,0.4-1.6,0.5-2.2-0.1c-1.3-1.2-1-2.7-0.5-4.1C179.7,174,181,173.8,182.6,174.4z"/>
	<path class="st3" d="M177.2,174.6c-0.5,0.6-1,0.3-1.5,0.5c-0.3,0.1-0.6,0.2-0.6,0.6c0,0.4,0.3,0.5,0.6,0.5c1.5,0.2,2.1,1,1.7,2.4
		c-0.3,1.1-1.2,1.4-2.2,1.3c-1.6-0.2-1.6-1.5-1.6-2.7C173.5,174.5,174.8,173.6,177.2,174.6z"/>
	<path class="st3" d="M166.8,174.5c-0.9,0.8-2,0.2-2.3,1.1c0.3,0.8,1,0.4,1.4,0.7c1.2,0.6,1.2,1.6,0.7,2.6c-0.5,1.1-1.8,1.3-2.7,0.7
		c-1.6-1.1-1.3-2.8-0.7-4.2C163.9,174,165.1,173.7,166.8,174.5z"/>
	<path class="st3" d="M136.4,176.7c0.9,0,2-0.6,2.2,0.6c0.2,0.8,0.6,2-0.6,2.4c-1.2,0.4-2.6,0.4-3.5-0.7c-1-1.3-1.1-2.9,0.1-4.1
		c1.2-1.2,2.7-1.4,4.2-0.2c-0.6,0.9-1.2,0.2-1.8,0.3c-1.5,0.1-1.9,1-1.8,2.2c0,0.7,0.3,1.4,1.2,1.6c0.4,0.1,0.8,0.1,1-0.3
		C137.9,177.5,136.4,177.6,136.4,176.7z"/>
	<path class="st3" d="M110.3,178c0.4-1.3,0.8-2.3,1.2-3.3c0.1-0.3,0.3-0.5,0.7-0.5c0.6,0.1,0.5,0.5,0.3,0.9c-0.4,1.3-0.9,2.6-1.4,4
		c-0.2,0.5-0.5,0.8-1,0.8s-0.9-0.3-1-0.8c-0.4-1.3-0.9-2.6-1.4-4c-0.1-0.3-0.2-0.8,0.3-0.9c0.5-0.1,0.7,0.2,0.9,0.6
		C109.3,175.8,109.4,176.9,110.3,178z"/>
	<path class="st3" d="M172.2,177c-0.1,1.5-0.2,3-2.2,2.9c-1.9-0.1-1.9-1.6-1.9-2.9c0-1.4,0.3-3,2.2-2.9
		C172.3,174.1,172.1,175.7,172.2,177z M171.1,177.1c-0.1-0.7,0.2-1.8-0.9-1.9c-1-0.1-1,0.9-0.9,1.6c0,0.8-0.3,2,1,2
		C171.1,178.8,171,177.8,171.1,177.1z"/>
	<path class="st3" d="M132.4,174.3c-0.3,1.3-1.8,0.4-1.9,1.4c-0.1,1,1.2,0.5,1.5,1.1c0,1.1-1.8,0.2-1.7,1.5c0.1,1.2,1.7,0.2,2,1.4
		c-1,0.3-2.5,0.7-2.9,0c-0.9-1.5-0.7-3.4-0.2-4.9C129.7,173.6,131.2,174.3,132.4,174.3z"/>
	<path class="st3" d="M104,179.7c-1.4,0-2.9,0.7-3.3-0.3c-0.6-1.5-0.6-3.4,0-4.8c0.4-1,1.9-0.4,3.5-0.2c-1.2,0.8-4.6,1.3-0.5,2.6
		C99.3,178.3,103.3,178.8,104,179.7z"/>
	<path class="st3" d="M157.9,179.7c1.4-1.4,2.2-2.7,0.4-4.1c-0.4-0.3-0.2-0.6,0-0.7c0.4-0.3,0.8-0.5,1.2-0.6s0.8,0.1,0.8,0.6
		c0.1,0.6,0.1,1.3,0,1.9c-0.1,1.1,0,2.1,1.2,2.9C160.3,180,159.3,179.9,157.9,179.7z"/>
	<path class="st3" d="M114.9,174.6c1.7-0.7,3.1-0.4,4.7-0.2c-2,0.6-1.6,2.1-1.7,3.4c0,0.7,0.4,1.9-0.7,1.9s-0.5-1.3-0.5-1.9
		C116.6,176.5,117.2,175,114.9,174.6z"/>
	<path class="st3" d="M128,179.3c-3.3,1-3.5,0.9-3.4-2.2c0-1-0.7-2.7,0.7-2.7c1.1,0,0.6,1.7,0.5,2.6
		C125.5,178.5,126.5,178.9,128,179.3z"/>
	<path class="st3" d="M153.2,177.2c-1.1-0.2-1.7-0.7-1.6-1.8c0.1-1,0.8-1.5,1.8-1.4c0.9,0.1,1.4,0.7,1.4,1.6
		C154.7,176.7,154,177.1,153.2,177.2z"/>
	<path class="st1" d="M136.8,153.6c0.7,0,1.3,0.3,1.4,1.2c0,0.8-0.4,1.1-1.2,1.1s-1.4-0.2-1.4-1.1
		C135.6,154.1,136,153.7,136.8,153.6z"/>
</g>
</svg>
